<?xml version="1.0" encoding="UTF-8"?>
<svg width="1365px" height="473px" viewBox="0 0 1365 473" version="1.1" xmlns="http://www.w3.org/2000/svg" xmlns:xlink="http://www.w3.org/1999/xlink">
    <title>logo-light</title>
    <g id="logo-light" stroke="none" stroke-width="1" fill="none" fill-rule="evenodd">
        <path d="M223,336 L213,336 C209.134007,336 206,332.865993 206,329 L206,254.748654 L206,254.748654 C188.789907,277.614369 163.803419,292 135.996977,292 C84.0822109,292 41.9969774,241.855892 41.9969774,180 L41.9969774,83 C41.9969774,79.1340068 45.1309842,76 48.9969774,76 L58.9969774,76 C62.8629706,76 65.9969774,79.1340068 65.9969774,83 L65.9969774,180 L65.9969774,180 C65.9969774,228.601058 97.3370449,268 135.996977,268 C174.65691,268 205.996977,228.601058 205.996977,180 L205.996977,83 C205.996977,79.1340068 209.130984,76 212.996977,76 L222.996977,76 C226.862939,76.0000814 229.996932,79.1340385 229.997059,83 L229.999919,329 C230.000045,332.865993 226.866075,336.000036 223.000081,336.000081 C223.000054,336.000081 223.000027,336.000081 223,336 Z" id="Path" fill="#000000" transform="translate(135.998489, 206.000000) scale(-1, -1) translate(-135.998489, -206.000000) "></path>
        <path d="M286,143 L286,224 L286,224 C286,272.601058 317.340068,312 356,312 C394.659932,312 426,272.601058 426,224 L426,143 C426,139.134007 429.134007,136 433,136 L443,136 C446.865993,136 450,139.134007 450,143 L450,272.113 L450,272.113 L450.006703,272.661473 C450.006703,272.946324 450.006703,273.229655 450.001612,273.51138 L450,329 C450,329.398195 449.966752,329.788624 449.90288,330.168662 L449.902702,332 C449.902702,391.646753 407.817468,440 355.902702,440 C342.96751,440 330.642553,436.998146 319.426775,431.567693 L318.914056,431.315176 C318.509227,431.112664 317.701489,430.673673 316.490842,429.998204 C313.269689,428.198744 311.997361,424.208275 313.583552,420.876926 L318.569316,410.405993 C319.865188,407.684446 323.121949,406.528708 325.843496,407.82458 C326.011631,407.904638 326.175559,407.993249 326.334636,408.090065 L326.334636,408.090065 L326.334636,408.090065 C327.25421,408.635013 327.931822,409.021999 328.367469,409.251025 L328.480283,409.30957 C336.901702,413.616564 346.170251,416 355.902702,416 C394.176035,416 425.275169,379.14032 425.893324,333.389094 L426.002,310.068 L426.003023,298.748654 C408.792929,321.614369 383.806441,336 356,336 C304.085234,336 262,285.855892 262,224 L262,143 C262,139.134007 265.134007,136 269,136 L279,136 C282.865993,136 286,139.134007 286,143 Z" id="Path" fill="#000000"></path>
        <path d="M612.393863,127.917548 L613.100261,128.251524 L613.796311,128.588238 L614.361664,128.867355 L615.083349,129.231052 L615.64657,129.520709 L616.422293,129.928093 L616.965853,130.219437 L617.712838,130.627814 L618.25698,130.931185 L618.995832,131.351146 C619.50938,131.646288 620.020056,131.946557 620.527937,132.251966 L621.402926,132.784916 L621.960873,133.131907 L622.675272,133.584435 L623.210051,133.929312 L623.923284,134.397545 L624.441145,134.743513 L625.145891,135.222549 C625.633671,135.557409 626.118717,135.897297 626.600891,136.242093 L627.465701,136.868022 L627.998113,137.260927 L628.638884,137.741558 L629.181972,138.155651 L629.794913,138.630533 C630.529175,139.204233 631.256186,139.789726 631.975615,140.38668 L633.233786,141.448976 L633.72056,141.869961 L634.374769,142.444742 L634.823004,142.844605 L635.528987,143.484559 L635.970585,143.89128 L636.514043,144.398729 C637.19922,145.04337 637.876256,145.698837 638.545,146.364947 L639.728881,147.564199 L640.14614,147.996617 L640.821366,148.707446 L641.237784,149.152778 L641.786302,149.747667 C642.41406,150.433952 643.033584,151.130123 643.644676,151.835951 L644.755496,153.140713 L645.676748,154.256849 C646.123854,154.806276 646.565883,155.360892 647.002897,155.92078 L647.001985,83 C647.001849,79.1340068 650.135816,75.9999608 654.001809,75.9999124 C654.001839,75.9999124 654.001868,75.9999124 654.001897,76 L663.999,76 C667.864993,76 670.999,79.1340068 670.999,83 L670.999,272.003967 L670.999,272.003967 L671.003483,272.661473 C671.233084,294.447771 682.784191,312 697,312 C699.327619,312 701.583799,311.529442 703.730542,310.646788 C704.173005,310.464866 704.610818,310.265437 705.043649,310.049014 L705.250055,309.939637 C705.250055,309.939637 705.250055,309.939637 705.250055,309.939637 C707.898307,308.46884 711.237456,309.423357 712.708252,312.071609 C712.798857,312.234748 712.881077,312.402403 712.954622,312.57391 L717.462789,323.092046 C718.891518,326.428181 717.533978,330.303116 714.334792,332.016672 C714.024865,332.182967 713.814543,332.291223 713.703827,332.341439 C708.480355,334.710601 702.857816,336 697,336 C669.386807,336 647.001693,307.348391 647,272.004009 L647,228 C647,221.23472 646.333521,214.656238 645.075053,208.353944 L644.945277,207.715158 L644.702193,206.573407 L644.491454,205.634263 L644.34468,205.004699 L644.128143,204.108855 L643.824097,202.909969 L643.520129,201.771702 L643.395068,201.319063 L643.136796,200.41058 C642.967598,199.826449 642.793178,199.24525 642.613603,198.667065 L642.340382,197.802057 L642.157054,197.237344 L641.813573,196.210584 L641.56032,195.47778 L641.393624,195.0059 L641.183892,194.423364 L640.99876,193.919019 L640.730151,193.202847 L640.581758,192.814746 C640.412084,192.37396 640.23932,191.935237 640.063499,191.498618 C639.789102,190.8172 639.507255,190.140891 639.218091,189.469859 L638.791647,188.495988 L638.528134,187.909309 L638.054271,186.881499 L637.782254,186.306447 L637.546294,185.816012 L637.030576,184.769911 L636.549102,183.823413 L635.988324,182.755209 L635.747139,182.306487 L635.431668,181.728834 L635.19851,181.308449 L634.842705,180.677285 L634.610145,180.271296 L634.288532,179.718098 L634.029842,179.279884 L633.676869,178.69135 C633.002402,177.576916 632.305667,176.483146 631.587447,175.410982 L630.928424,174.441976 L630.251888,173.476888 L629.644974,172.635413 L629.346773,172.230049 L628.91177,171.647968 L628.678108,171.33973 C628.388382,170.959421 628.095778,170.58232 627.800339,170.208478 L627.182627,169.436682 L626.556986,168.674529 L626.367295,168.447222 L625.867731,167.856774 L625.567069,167.50702 L625.159605,167.039596 L624.821773,166.657673 L624.134457,165.895982 C623.828855,165.561796 623.520778,165.230815 623.210261,164.903082 C623.003989,164.685377 622.79701,164.469486 622.58897,164.255036 L623.210261,164.903082 L622.794321,164.46754 L622.375503,164.035881 L621.565245,163.219914 L621.017902,162.682609 L620.714161,162.389152 L620.244128,161.941541 L619.911093,161.629102 L619.122226,160.904267 L618.715089,160.538393 L618.499987,160.347308 C617.883161,159.801532 617.258602,159.267613 616.626545,158.745831 L616.352661,158.520875 L615.838197,158.104444 L615.415362,157.768087 L614.970958,157.420227 L614.583491,157.1216 L614.095902,156.751897 L613.734918,156.482505 L613.193286,156.085091 L612.863775,155.847256 C612.564533,155.63261 612.263844,155.420569 611.96173,155.211158 L610.951909,154.524553 L610.417664,154.171957 L609.880599,153.824794 L609.336802,153.480631 L608.950094,153.240333 L608.372051,152.887945 L607.481262,152.360637 L606.646309,151.883407 L606.469532,151.784452 C605.991385,151.517774 605.51031,151.257384 605.026379,151.003372 L604.298351,150.627148 L603.980213,150.466431 L603.367656,150.16323 L602.993041,149.981826 L602.404971,149.703155 L602.020964,149.525172 L601.441515,149.262515 L601.008049,149.070642 L600.483703,148.843771 L600.069731,148.668671 L599.398247,148.39212 C598.970256,148.218781 598.540411,148.050272 598.108758,147.886648 L599.078588,148.263692 L598.497309,148.035441 L597.913808,147.813128 C597.557814,147.679564 597.200598,147.54932 596.842184,147.422427 L596.059191,147.151195 L595.265835,146.888495 L594.559333,146.664726 L593.735459,146.415773 L593.209005,146.263398 L592.426945,146.04662 L592.681012,146.115794 C592.201299,145.984051 591.719708,145.858222 591.236294,145.738374 L590.669091,145.600701 L590.166806,145.483688 L589.623589,145.362298 L589.138821,145.258474 L588.556754,145.139399 L588.149759,145.059745 L587.475182,144.934229 L587.091979,144.866529 L586.57869,144.779918 L586.064217,144.697769 L585.519357,144.615837 L585.168057,144.565768 C584.749364,144.507378 584.329543,144.453421 583.908629,144.403938 L584.973207,144.538926 C584.514344,144.476493 584.054136,144.419385 583.592627,144.367653 L582.869399,144.291098 L582.42884,144.248879 L581.779782,144.192749 L581.321199,144.157439 L580.711299,144.116038 L580.251129,144.088994 L579.601159,144.056921 L579.168154,144.039526 L578.392959,144.0163 C577.929728,144.00545 577.465395,144 577,144 C538.340068,144 507,181.608081 507,228 C507,274.391919 538.340068,312 577,312 C586.732451,312 596.001,309.616564 604.422419,305.30957 L604.89873,305.06081 C605.024451,304.993893 605.165551,304.916717 605.322029,304.829281 C608.695966,302.941836 612.960879,304.14787 614.847537,307.522247 C614.921805,307.655079 614.991722,307.790298 615.057803,307.927388 L619.31915,316.876926 C620.90771,320.213373 619.628313,324.209664 616.397748,326.00378 C614.990519,326.784617 614.016578,327.305921 613.475927,327.567693 C602.260149,332.998146 589.935192,336 577,336 C535.587293,336 500.429456,305.231164 487.89973,262.505298 C485.026488,256.508768 483,245.332179 483,228 C483,168.353247 525.085234,120 577,120 C577.464109,120 577.927432,120.003864 578.389947,120.011567 L577,120 C577.518765,120 578.036548,120.004828 578.553318,120.014448 L579.180444,120.028485 L580.15598,120.059725 L580.748708,120.084311 L581.64767,120.129707 L582.303165,120.168982 L582.998137,120.216325 C583.632083,120.262195 584.264152,120.315265 584.894398,120.375475 L585.953688,120.48357 L586.615386,120.558109 L587.455366,120.660533 L588.07329,120.741472 L589.017353,120.874316 L589.618258,120.964679 L590.402162,121.089378 L591.057797,121.199621 L591.794912,121.330065 L592.412409,121.444655 L593.245595,121.606988 L593.883038,121.737194 L594.667758,121.904674 L595.266044,122.03772 L596.210647,122.257265 L596.791518,122.398068 L597.60058,122.601584 L598.205658,122.759448 L598.929195,122.95461 C599.511968,123.114617 600.092737,123.280891 600.671377,123.45335 L601.696464,123.766024 L602.321612,123.963768 L603.101603,124.218048 L603.730374,124.429179 L604.437868,124.673351 L605.079135,124.900753 L605.832614,125.175395 C606.655082,125.479597 607.472668,125.79649 608.285134,126.125849 L609.110921,126.465633 L609.962987,126.826835 L610.513746,127.066093 L611.187352,127.364948 L611.791904,127.639048 L612.393863,127.917548 Z" id="Path" fill="#000000"></path>
        <path d="M830.058619,120 C842.706362,120 854.77069,122.869921 865.785189,128.073881 L866.660415,128.494787 C866.974539,128.653679 867.903795,129.162955 869.448183,130.022615 C872.677489,131.815166 873.954937,135.809404 872.367623,139.144382 L866.953136,150.515705 C865.87602,152.777826 863.169035,153.738463 860.906914,152.661348 C860.767171,152.594809 860.630925,152.521162 860.49871,152.440696 L860.49871,152.440696 L860.49871,152.440696 C859.184903,151.647406 858.355459,151.15645 858.010378,150.967828 L857.481037,150.69043 C849.059619,146.383436 839.791069,144 830.058619,144 C791.785286,144 760.686152,180.85968 760.067997,226.610906 L760.058619,227.959 L760.067997,229.307733 C760.134778,234.250395 760.11156,239.011354 760.00115,243.518434 L759.999163,329 C759.99891,332.86593 756.86493,335.999837 752.999,336 L743,336 C739.134007,336.000066 736,332.86606 736,329.000066 C736,329.000044 736,329.000022 736.000066,329 L736.001831,143 C736.001934,139.134033 739.13593,136.000066 743.001897,136 L752.999,136 C756.864901,136.000237 759.998869,139.134099 759.999237,143 L759.999697,156.614264 L759.999697,156.614264 L759.998584,155.993053 C777.210473,133.902532 802.221451,120 830.058619,120 Z" id="Path" fill="#000000"></path>
        <path d="M970,120 C1021.91477,120 1064,168.353247 1064,228 C1064,287.646753 1021.91477,336 970,336 C918.085234,336 876,287.646753 876,228 C876,168.353247 918.085234,120 970,120 Z M970,144 C931.340068,144 900,181.608081 900,228 C900,274.391919 931.340068,312 970,312 C1008.65993,312 1040,274.391919 1040,228 C1040,181.608081 1008.65993,144 970,144 Z" id="Shape" fill="#000000"></path>
        <path d="M1103,136 L1113,136 C1116.86599,135.999004 1120,139.133011 1120,142.999004 C1120,142.999336 1120,142.999668 1119.999,143 L1119.99698,157.251346 L1119.99698,157.251346 C1137.20707,134.385631 1162.19356,120 1190,120 C1241.91477,120 1284,170.144108 1284,232 L1284,329 C1284,332.865993 1280.86599,336 1277,336 L1267,336 C1263.13401,336 1260,332.865993 1260,329 L1260,232 L1260,232 C1260,183.398942 1228.65993,144 1190,144 C1151.34007,144 1120,183.398942 1120,232 L1120,329 C1120,332.865993 1116.86599,336 1113,336 L1103,336 C1099.13401,336 1096,332.865993 1096,329 L1096,143 C1096,139.134007 1099.13401,136 1103,136 Z" id="Path" fill="#000000"></path>
        <path d="M982,211 L982,216 L982,216 L987,216 C990.865993,216 994,219.134007 994,223 L994,233 C994,236.865993 990.865993,240 987,240 L982,240 L982,240 L982,245 C982,248.865993 978.865993,252 975,252 L965,252 C961.134007,252 958,248.865993 958,245 L958,240 L958,240 L953,240 C949.134007,240 946,236.865993 946,233 L946,223 C946,219.134007 949.134007,216 953,216 L958,216 L958,216 L958,211 C958,207.134007 961.134007,204 965,204 L975,204 C978.865993,204 982,207.134007 982,211 Z" id="Path" fill="#1F6FEB"></path>
    </g>
</svg>